<svg xmlns="http://www.w3.org/2000/svg" width="1046" height="592" viewBox="0 0 1046 592" version="1.1">

  <!-- Ethereum-style gradient -->
  <defs>
    <linearGradient id="ethGradient" x1="0%" y1="0%" x2="100%" y2="100%">
      <stop offset="0%"  stop-color="#627EEA"/>
      <stop offset="50%" stop-color="#8A5CF6"/>
      <stop offset="100%" stop-color="#627EEA"/>
    </linearGradient>
  </defs>

  <!-- If you want a dark background like your screenshot, uncomment this: -->
  <!-- <rect width="100%" height="100%" fill="#05060E" /> -->

  <path d="M 470 46.103 C 420.050 49.362, 373.183 55.938, 338 64.625 C 269.839 81.454, 212.032 107.914, 166 143.354 C 154.255 152.397, 131.758 174.333, 124.826 183.500 C 100.664 215.457, 89.991 244.836, 90.005 279.349 C 90.026 329.347, 113.105 372.743, 162 414.720 C 166.571 418.644, 185.597 432.344, 194.500 438.122 C 223.646 457.037, 260.807 473.929, 301.579 486.796 C 329.185 495.507, 344.829 499.459, 373.500 504.960 C 412.995 512.540, 437.313 515.347, 491.270 518.555 L 502.040 519.195 501.770 497.848 L 501.500 476.500 484 475.353 C 439.499 472.435, 406.814 466.431, 372.500 454.871 C 336.427 442.719, 304.332 426.402, 277.481 406.563 C 266.045 398.114, 239.797 371.378, 231.991 360.227 C 208.765 327.047, 200.611 293.423, 207.058 257.413 C 219.907 185.644, 292.535 125.402, 399.190 98.046 C 425.385 91.327, 450.859 87.733, 490.270 85.194 C 496.194 84.812, 501.031 84.162, 501.020 83.750 C 501.009 83.338, 501 74.450, 501 64 L 501 45 491.750 45.144 C 486.663 45.223, 476.875 45.654, 470 46.103 M 525 123.713 L 525 202.691 537.750 203.346 C 568.109 204.906, 601.328 215.220, 618.894 228.538 C 625.006 233.172, 633.186 242.860, 634.510 247.032 C 635.120 248.953, 636.277 249, 683.179 249 L 731.223 249 730.583 245.250 C 729.678 239.945, 721.850 224.329, 716.584 217.324 C 710.622 209.392, 697.077 196.512, 687.938 190.085 C 667.497 175.709, 636.156 162.398, 604.250 154.541 L 593 151.771 593 122.366 L 593 92.962 595.250 93.484 C 596.487 93.771, 603.800 95.093, 611.500 96.422 C 658.097 104.466, 706.839 123.151, 741.500 146.259 C 769.925 165.208, 794.591 191.209, 808.057 216.418 C 814.946 229.313, 818.328 237.982, 821.577 251.074 C 824.123 261.331, 824.416 264.239, 824.441 279.500 C 824.467 294.731, 824.188 297.615, 821.763 307.214 C 816.693 327.282, 807.543 345.826, 793.252 365 C 786.033 374.686, 763.893 396.779, 753 405.167 C 721.448 429.464, 686.443 446.391, 644 457.875 C 631.829 461.169, 600.190 467, 594.492 467 C 593.158 467, 593.004 463.225, 593.236 436.287 L 593.500 405.574 596.500 404.839 C 628.689 396.950, 658.345 385.238, 678.559 372.433 C 697.761 360.270, 715.429 342.958, 723.750 328.153 C 727.571 321.354, 732.121 309.100, 731.324 307.750 C 731.081 307.337, 709.421 307.018, 683.191 307.041 L 635.500 307.082 633.235 311.918 C 622.535 334.756, 584.771 351.128, 534.750 354.615 L 525 355.295 525 436.589 C 525 481.300, 525.370 518.110, 525.822 518.390 C 527.081 519.168, 560.857 517.238, 586 514.951 C 657.412 508.456, 717.063 494.341, 772 470.938 C 854.438 435.820, 911.721 384.090, 931.112 327.249 C 938.812 304.678, 940.953 279.690, 937.116 257.171 C 927.435 200.351, 885.878 151.035, 814.210 111.321 C 741.070 70.791, 651.943 48.912, 545.750 45.418 L 525 44.735 525 123.713 M 466.500 151.672 C 421.397 155.727, 376.009 170.105, 347.833 189.263 C 311.331 214.083, 292.424 251.362, 296.994 289.500 C 301.635 328.226, 326.933 359.844, 371.011 382.005 C 404.028 398.606, 449.312 409, 488.622 409 L 502.033 409 501.766 382.250 L 501.500 355.500 491.500 354.813 C 464.737 352.976, 433.865 342.828, 416.892 330.289 C 403.995 320.762, 393.950 306.268, 390.397 292.060 C 388.170 283.151, 388.873 267.770, 391.907 259.059 C 400.803 233.515, 427.738 214.596, 466.768 206.479 C 473.771 205.022, 484 203.584, 489.500 203.283 C 495 202.981, 500.217 202.366, 501.094 201.916 C 502.491 201.198, 502.676 198.041, 502.594 176.299 L 502.500 151.500 486.500 151.406 C 477.700 151.355, 468.700 151.474, 466.500 151.672"
        stroke="none"
        fill="url(#ethGradient)"
        fill-rule="evenodd"/>
</svg>